<svg width="16" height="16" viewBox="0 0 16 16" fill="none" xmlns="http://www.w3.org/2000/svg">
<path d="M8.00033 8.66683C8.36851 8.66683 8.66699 8.36835 8.66699 8.00016C8.66699 7.63197 8.36851 7.3335 8.00033 7.3335C7.63214 7.3335 7.33366 7.63197 7.33366 8.00016C7.33366 8.36835 7.63214 8.66683 8.00033 8.66683Z" stroke="#232323" stroke-width="1.5" stroke-linecap="round" stroke-linejoin="round"/>
<path d="M12.667 8.66683C13.0352 8.66683 13.3337 8.36835 13.3337 8.00016C13.3337 7.63197 13.0352 7.3335 12.667 7.3335C12.2988 7.3335 12.0003 7.63197 12.0003 8.00016C12.0003 8.36835 12.2988 8.66683 12.667 8.66683Z" stroke="#232323" stroke-width="1.5" stroke-linecap="round" stroke-linejoin="round"/>
<path d="M3.33366 8.66683C3.70185 8.66683 4.00033 8.36835 4.00033 8.00016C4.00033 7.63197 3.70185 7.3335 3.33366 7.3335C2.96547 7.3335 2.66699 7.63197 2.66699 8.00016C2.66699 8.36835 2.96547 8.66683 3.33366 8.66683Z" stroke="#232323" stroke-width="1.5" stroke-linecap="round" stroke-linejoin="round"/>
</svg>
